<mxfile host="Electron" agent="Mozilla/5.0 (X11; Linux x86_64) AppleWebKit/537.36 (KHTML, like Gecko) draw.io/28.1.2 Chrome/138.0.7204.243 Electron/37.4.0 Safari/537.36" version="28.1.2">
  <diagram name="Page-1" id="SJIx_TMV2mGabPRBRpuI">
    <mxGraphModel dx="806" dy="531" grid="1" gridSize="10" guides="1" tooltips="1" connect="1" arrows="1" fold="1" page="1" pageScale="1" pageWidth="850" pageHeight="1100" math="0" shadow="0">
      <root>
        <mxCell id="0" />
        <mxCell id="1" parent="0" />
        <mxCell id="q6Q0hkMuluO9ET0uAF98-1" value="crm_sales_details" style="swimlane;fontStyle=0;childLayout=stackLayout;horizontal=1;startSize=30;horizontalStack=0;resizeParent=1;resizeParentMax=0;resizeLast=0;collapsible=1;marginBottom=0;whiteSpace=wrap;html=1;fillColor=#dae8fc;strokeColor=#6c8ebf;" vertex="1" parent="1">
          <mxGeometry x="20" y="230" width="140" height="100" as="geometry" />
        </mxCell>
        <mxCell id="q6Q0hkMuluO9ET0uAF98-2" value="prd_key" style="text;strokeColor=none;fillColor=none;align=left;verticalAlign=middle;spacingLeft=4;spacingRight=4;overflow=hidden;points=[[0,0.5],[1,0.5]];portConstraint=eastwest;rotatable=0;whiteSpace=wrap;html=1;" vertex="1" parent="q6Q0hkMuluO9ET0uAF98-1">
          <mxGeometry y="30" width="140" height="20" as="geometry" />
        </mxCell>
        <mxCell id="q6Q0hkMuluO9ET0uAF98-3" value="cst_id" style="text;strokeColor=default;fillColor=none;align=left;verticalAlign=middle;spacingLeft=4;spacingRight=4;overflow=hidden;points=[[0,0.5],[1,0.5]];portConstraint=eastwest;rotatable=0;whiteSpace=wrap;html=1;" vertex="1" parent="q6Q0hkMuluO9ET0uAF98-1">
          <mxGeometry y="50" width="140" height="20" as="geometry" />
        </mxCell>
        <mxCell id="q6Q0hkMuluO9ET0uAF98-4" value="&lt;b&gt;SALES&lt;/b&gt;" style="text;strokeColor=#6c8ebf;fillColor=#dae8fc;align=center;verticalAlign=middle;spacingLeft=4;spacingRight=4;overflow=hidden;points=[[0,0.5],[1,0.5]];portConstraint=eastwest;rotatable=0;whiteSpace=wrap;html=1;" vertex="1" parent="q6Q0hkMuluO9ET0uAF98-1">
          <mxGeometry y="70" width="140" height="30" as="geometry" />
        </mxCell>
        <mxCell id="q6Q0hkMuluO9ET0uAF98-5" value="Transcational Records about&lt;div&gt;Sales &amp;amp; Orders&amp;nbsp;&lt;/div&gt;" style="text;html=1;align=center;verticalAlign=middle;whiteSpace=wrap;rounded=0;" vertex="1" parent="1">
          <mxGeometry x="20" y="200" width="160" height="30" as="geometry" />
        </mxCell>
        <mxCell id="q6Q0hkMuluO9ET0uAF98-19" value="crm_cust_info" style="swimlane;fontStyle=0;childLayout=stackLayout;horizontal=1;startSize=30;horizontalStack=0;resizeParent=1;resizeParentMax=0;resizeLast=0;collapsible=1;marginBottom=0;whiteSpace=wrap;html=1;fillColor=#dae8fc;strokeColor=#6c8ebf;" vertex="1" parent="1">
          <mxGeometry x="300" y="350" width="140" height="90" as="geometry" />
        </mxCell>
        <mxCell id="q6Q0hkMuluO9ET0uAF98-20" value="cst_id" style="text;strokeColor=none;fillColor=none;align=left;verticalAlign=middle;spacingLeft=4;spacingRight=4;overflow=hidden;points=[[0,0.5],[1,0.5]];portConstraint=eastwest;rotatable=0;whiteSpace=wrap;html=1;" vertex="1" parent="q6Q0hkMuluO9ET0uAF98-19">
          <mxGeometry y="30" width="140" height="20" as="geometry" />
        </mxCell>
        <mxCell id="q6Q0hkMuluO9ET0uAF98-21" value="cst_key" style="text;strokeColor=none;fillColor=none;align=left;verticalAlign=middle;spacingLeft=4;spacingRight=4;overflow=hidden;points=[[0,0.5],[1,0.5]];portConstraint=eastwest;rotatable=0;whiteSpace=wrap;html=1;" vertex="1" parent="q6Q0hkMuluO9ET0uAF98-19">
          <mxGeometry y="50" width="140" height="20" as="geometry" />
        </mxCell>
        <mxCell id="q6Q0hkMuluO9ET0uAF98-22" value="&lt;b&gt;CUSTOMER&lt;/b&gt;" style="text;strokeColor=#3700CC;fillColor=#6a00ff;align=center;verticalAlign=middle;spacingLeft=4;spacingRight=4;overflow=hidden;points=[[0,0.5],[1,0.5]];portConstraint=eastwest;rotatable=0;whiteSpace=wrap;html=1;fontColor=#ffffff;" vertex="1" parent="q6Q0hkMuluO9ET0uAF98-19">
          <mxGeometry y="70" width="140" height="20" as="geometry" />
        </mxCell>
        <mxCell id="q6Q0hkMuluO9ET0uAF98-23" value="Customer&amp;nbsp;&lt;div&gt;Information&lt;/div&gt;" style="text;html=1;align=center;verticalAlign=middle;whiteSpace=wrap;rounded=0;" vertex="1" parent="1">
          <mxGeometry x="300" y="320" width="130" height="30" as="geometry" />
        </mxCell>
        <mxCell id="q6Q0hkMuluO9ET0uAF98-24" value="crm_prd_info" style="swimlane;fontStyle=0;childLayout=stackLayout;horizontal=1;startSize=30;horizontalStack=0;resizeParent=1;resizeParentMax=0;resizeLast=0;collapsible=1;marginBottom=0;whiteSpace=wrap;html=1;fillColor=#dae8fc;strokeColor=#6c8ebf;" vertex="1" parent="1">
          <mxGeometry x="285" y="110" width="140" height="70" as="geometry" />
        </mxCell>
        <mxCell id="q6Q0hkMuluO9ET0uAF98-25" value="prd_key" style="text;strokeColor=none;fillColor=none;align=left;verticalAlign=middle;spacingLeft=4;spacingRight=4;overflow=hidden;points=[[0,0.5],[1,0.5]];portConstraint=eastwest;rotatable=0;whiteSpace=wrap;html=1;" vertex="1" parent="q6Q0hkMuluO9ET0uAF98-24">
          <mxGeometry y="30" width="140" height="20" as="geometry" />
        </mxCell>
        <mxCell id="q6Q0hkMuluO9ET0uAF98-26" value="PRODUCT" style="text;strokeColor=#2D7600;fillColor=#60a917;align=center;verticalAlign=middle;spacingLeft=4;spacingRight=4;overflow=hidden;points=[[0,0.5],[1,0.5]];portConstraint=eastwest;rotatable=0;whiteSpace=wrap;html=1;fontColor=#ffffff;" vertex="1" parent="q6Q0hkMuluO9ET0uAF98-24">
          <mxGeometry y="50" width="140" height="20" as="geometry" />
        </mxCell>
        <mxCell id="q6Q0hkMuluO9ET0uAF98-28" value="Current &amp;amp; History Product Information" style="text;html=1;align=center;verticalAlign=middle;whiteSpace=wrap;rounded=0;" vertex="1" parent="1">
          <mxGeometry x="285" y="80" width="140" height="30" as="geometry" />
        </mxCell>
        <mxCell id="q6Q0hkMuluO9ET0uAF98-32" value="&lt;b style=&quot;&quot;&gt;&lt;font style=&quot;font-size: 16px;&quot;&gt;CRM&lt;/font&gt;&lt;/b&gt;" style="text;html=1;align=center;verticalAlign=middle;whiteSpace=wrap;rounded=0;fillColor=default;" vertex="1" parent="1">
          <mxGeometry x="200" y="50" width="60" height="30" as="geometry" />
        </mxCell>
        <mxCell id="q6Q0hkMuluO9ET0uAF98-33" style="edgeStyle=orthogonalEdgeStyle;rounded=0;orthogonalLoop=1;jettySize=auto;html=1;entryX=0;entryY=0.5;entryDx=0;entryDy=0;" edge="1" parent="1" source="q6Q0hkMuluO9ET0uAF98-2" target="q6Q0hkMuluO9ET0uAF98-25">
          <mxGeometry relative="1" as="geometry" />
        </mxCell>
        <mxCell id="q6Q0hkMuluO9ET0uAF98-34" style="edgeStyle=orthogonalEdgeStyle;rounded=0;orthogonalLoop=1;jettySize=auto;html=1;entryX=0;entryY=0.5;entryDx=0;entryDy=0;" edge="1" parent="1" source="q6Q0hkMuluO9ET0uAF98-3" target="q6Q0hkMuluO9ET0uAF98-20">
          <mxGeometry relative="1" as="geometry" />
        </mxCell>
        <mxCell id="q6Q0hkMuluO9ET0uAF98-36" value="erp_px_cat_g1v2" style="swimlane;fontStyle=0;childLayout=stackLayout;horizontal=1;startSize=30;horizontalStack=0;resizeParent=1;resizeParentMax=0;resizeLast=0;collapsible=1;marginBottom=0;whiteSpace=wrap;html=1;fillColor=#fff2cc;strokeColor=#d6b656;" vertex="1" parent="1">
          <mxGeometry x="630" y="100" width="140" height="70" as="geometry" />
        </mxCell>
        <mxCell id="q6Q0hkMuluO9ET0uAF98-37" value="id" style="text;strokeColor=none;fillColor=none;align=left;verticalAlign=middle;spacingLeft=4;spacingRight=4;overflow=hidden;points=[[0,0.5],[1,0.5]];portConstraint=eastwest;rotatable=0;whiteSpace=wrap;html=1;" vertex="1" parent="q6Q0hkMuluO9ET0uAF98-36">
          <mxGeometry y="30" width="140" height="20" as="geometry" />
        </mxCell>
        <mxCell id="q6Q0hkMuluO9ET0uAF98-38" value="PRODUCT" style="text;strokeColor=#2D7600;fillColor=#60a917;align=center;verticalAlign=middle;spacingLeft=4;spacingRight=4;overflow=hidden;points=[[0,0.5],[1,0.5]];portConstraint=eastwest;rotatable=0;whiteSpace=wrap;html=1;fontColor=#ffffff;" vertex="1" parent="q6Q0hkMuluO9ET0uAF98-36">
          <mxGeometry y="50" width="140" height="20" as="geometry" />
        </mxCell>
        <mxCell id="q6Q0hkMuluO9ET0uAF98-40" value="erp_cust_az12" style="swimlane;fontStyle=0;childLayout=stackLayout;horizontal=1;startSize=30;horizontalStack=0;resizeParent=1;resizeParentMax=0;resizeLast=0;collapsible=1;marginBottom=0;whiteSpace=wrap;html=1;fillColor=#fff2cc;strokeColor=#d6b656;" vertex="1" parent="1">
          <mxGeometry x="630" y="230" width="140" height="70" as="geometry" />
        </mxCell>
        <mxCell id="q6Q0hkMuluO9ET0uAF98-41" value="cid" style="text;strokeColor=none;fillColor=none;align=left;verticalAlign=middle;spacingLeft=4;spacingRight=4;overflow=hidden;points=[[0,0.5],[1,0.5]];portConstraint=eastwest;rotatable=0;whiteSpace=wrap;html=1;" vertex="1" parent="q6Q0hkMuluO9ET0uAF98-40">
          <mxGeometry y="30" width="140" height="20" as="geometry" />
        </mxCell>
        <mxCell id="q6Q0hkMuluO9ET0uAF98-42" value="CUSTOMER" style="text;strokeColor=#001DBC;fillColor=#0050ef;align=center;verticalAlign=middle;spacingLeft=4;spacingRight=4;overflow=hidden;points=[[0,0.5],[1,0.5]];portConstraint=eastwest;rotatable=0;whiteSpace=wrap;html=1;fontColor=#ffffff;" vertex="1" parent="q6Q0hkMuluO9ET0uAF98-40">
          <mxGeometry y="50" width="140" height="20" as="geometry" />
        </mxCell>
        <mxCell id="q6Q0hkMuluO9ET0uAF98-46" value="erp_loc_a101" style="swimlane;fontStyle=0;childLayout=stackLayout;horizontal=1;startSize=30;horizontalStack=0;resizeParent=1;resizeParentMax=0;resizeLast=0;collapsible=1;marginBottom=0;whiteSpace=wrap;html=1;fillColor=#fff2cc;strokeColor=#d6b656;" vertex="1" parent="1">
          <mxGeometry x="630" y="360" width="140" height="70" as="geometry" />
        </mxCell>
        <mxCell id="q6Q0hkMuluO9ET0uAF98-47" value="cid" style="text;strokeColor=none;fillColor=none;align=left;verticalAlign=middle;spacingLeft=4;spacingRight=4;overflow=hidden;points=[[0,0.5],[1,0.5]];portConstraint=eastwest;rotatable=0;whiteSpace=wrap;html=1;" vertex="1" parent="q6Q0hkMuluO9ET0uAF98-46">
          <mxGeometry y="30" width="140" height="20" as="geometry" />
        </mxCell>
        <mxCell id="q6Q0hkMuluO9ET0uAF98-48" value="CUSTOMER" style="text;strokeColor=#001DBC;fillColor=#0050ef;align=center;verticalAlign=middle;spacingLeft=4;spacingRight=4;overflow=hidden;points=[[0,0.5],[1,0.5]];portConstraint=eastwest;rotatable=0;whiteSpace=wrap;html=1;fontColor=#ffffff;" vertex="1" parent="q6Q0hkMuluO9ET0uAF98-46">
          <mxGeometry y="50" width="140" height="20" as="geometry" />
        </mxCell>
        <mxCell id="q6Q0hkMuluO9ET0uAF98-49" value="Product Categories" style="text;html=1;align=center;verticalAlign=middle;whiteSpace=wrap;rounded=0;" vertex="1" parent="1">
          <mxGeometry x="630" y="70" width="140" height="30" as="geometry" />
        </mxCell>
        <mxCell id="q6Q0hkMuluO9ET0uAF98-50" value="Extra Customer Information (Birthdate)" style="text;html=1;align=center;verticalAlign=middle;whiteSpace=wrap;rounded=0;" vertex="1" parent="1">
          <mxGeometry x="630" y="200" width="140" height="30" as="geometry" />
        </mxCell>
        <mxCell id="q6Q0hkMuluO9ET0uAF98-51" value="Location of Customer (Country)" style="text;html=1;align=center;verticalAlign=middle;whiteSpace=wrap;rounded=0;" vertex="1" parent="1">
          <mxGeometry x="630" y="330" width="140" height="30" as="geometry" />
        </mxCell>
        <mxCell id="q6Q0hkMuluO9ET0uAF98-52" style="edgeStyle=orthogonalEdgeStyle;rounded=0;orthogonalLoop=1;jettySize=auto;html=1;entryX=0;entryY=0.5;entryDx=0;entryDy=0;" edge="1" parent="1" source="q6Q0hkMuluO9ET0uAF98-25" target="q6Q0hkMuluO9ET0uAF98-37">
          <mxGeometry relative="1" as="geometry" />
        </mxCell>
        <mxCell id="q6Q0hkMuluO9ET0uAF98-54" style="edgeStyle=orthogonalEdgeStyle;rounded=0;orthogonalLoop=1;jettySize=auto;html=1;entryX=0;entryY=0.5;entryDx=0;entryDy=0;" edge="1" parent="1" source="q6Q0hkMuluO9ET0uAF98-21" target="q6Q0hkMuluO9ET0uAF98-41">
          <mxGeometry relative="1" as="geometry" />
        </mxCell>
        <mxCell id="q6Q0hkMuluO9ET0uAF98-55" style="edgeStyle=orthogonalEdgeStyle;rounded=0;orthogonalLoop=1;jettySize=auto;html=1;entryX=0;entryY=0.5;entryDx=0;entryDy=0;" edge="1" parent="1" source="q6Q0hkMuluO9ET0uAF98-21" target="q6Q0hkMuluO9ET0uAF98-47">
          <mxGeometry relative="1" as="geometry" />
        </mxCell>
        <mxCell id="q6Q0hkMuluO9ET0uAF98-56" value="" style="rounded=0;whiteSpace=wrap;html=1;fillColor=none;dashed=1;" vertex="1" parent="1">
          <mxGeometry x="10" y="70" width="470" height="410" as="geometry" />
        </mxCell>
        <mxCell id="q6Q0hkMuluO9ET0uAF98-57" value="" style="rounded=0;whiteSpace=wrap;html=1;fillColor=none;dashed=1;" vertex="1" parent="1">
          <mxGeometry x="590" y="60" width="210" height="400" as="geometry" />
        </mxCell>
        <mxCell id="q6Q0hkMuluO9ET0uAF98-58" value="&lt;span style=&quot;font-size: 16px;&quot;&gt;&lt;b&gt;ERM&lt;/b&gt;&lt;/span&gt;" style="text;html=1;align=center;verticalAlign=middle;whiteSpace=wrap;rounded=0;fillColor=default;" vertex="1" parent="1">
          <mxGeometry x="665" y="40" width="60" height="30" as="geometry" />
        </mxCell>
        <mxCell id="q6Q0hkMuluO9ET0uAF98-59" value="&lt;b&gt;Enterprise Resource Planning&lt;/b&gt;" style="text;html=1;align=center;verticalAlign=middle;whiteSpace=wrap;rounded=0;" vertex="1" parent="1">
          <mxGeometry x="590" y="10" width="200" height="30" as="geometry" />
        </mxCell>
        <mxCell id="q6Q0hkMuluO9ET0uAF98-60" value="&lt;font style=&quot;font-size: 14px;&quot;&gt;&lt;b&gt;&lt;i&gt;Intergration Model&lt;/i&gt;&lt;/b&gt;&lt;/font&gt; (How tables are related)" style="text;html=1;align=center;verticalAlign=middle;whiteSpace=wrap;rounded=0;" vertex="1" parent="1">
          <mxGeometry x="40" y="10" width="290" height="30" as="geometry" />
        </mxCell>
      </root>
    </mxGraphModel>
  </diagram>
</mxfile>
